<?xml version="1.0" encoding="UTF-8"?>
<svg id="_Слой_2" data-name="Слой 2" xmlns="http://www.w3.org/2000/svg" xmlns:xlink="http://www.w3.org/1999/xlink" viewBox="0 0 699.39 97.78">
  <defs>
    <style>
      .cls-1 {
        fill: url(#linear-gradient-2);
      }

      .cls-2 {
        fill: url(#linear-gradient-6);
      }

      .cls-3 {
        fill: url(#linear-gradient-11);
      }

      .cls-4 {
        fill: url(#linear-gradient-10);
      }

      .cls-5 {
        fill: url(#linear-gradient-5);
      }

      .cls-6 {
        fill: url(#linear-gradient-7);
      }

      .cls-7 {
        fill: url(#linear-gradient-9);
      }

      .cls-8 {
        fill: url(#linear-gradient-3);
      }

      .cls-9 {
        fill: url(#linear-gradient);
      }

      .cls-10 {
        fill: url(#linear-gradient-4);
      }

      .cls-11 {
        fill: url(#linear-gradient-8);
      }

      .cls-12 {
        fill: url(#linear-gradient-12);
      }
    </style>
    <linearGradient id="linear-gradient" x1="9.07" y1="43.01" x2="646.79" y2="-12.18" gradientUnits="userSpaceOnUse">
      <stop offset="0" stop-color="#4a4f9b"/>
      <stop offset="1" stop-color="#72bfaf"/>
    </linearGradient>
    <linearGradient id="linear-gradient-2" x1="10.17" y1="55.75" x2="647.9" y2=".56" xlink:href="#linear-gradient"/>
    <linearGradient id="linear-gradient-3" x1="10.49" y1="59.41" x2="648.22" y2="4.22" xlink:href="#linear-gradient"/>
    <linearGradient id="linear-gradient-4" x1="10.39" y1="58.29" x2="648.12" y2="3.1" xlink:href="#linear-gradient"/>
    <linearGradient id="linear-gradient-5" x1="10.6" y1="60.82" x2="648.34" y2="5.63" xlink:href="#linear-gradient"/>
    <linearGradient id="linear-gradient-6" x1="10.97" y1="64.93" x2="648.69" y2="9.75" xlink:href="#linear-gradient"/>
    <linearGradient id="linear-gradient-7" x1="11.42" y1="70.36" x2="649.17" y2="15.17" xlink:href="#linear-gradient"/>
    <linearGradient id="linear-gradient-8" x1="12.78" y1="85.88" x2="650.5" y2="30.7" xlink:href="#linear-gradient"/>
    <linearGradient id="linear-gradient-9" x1="13.21" y1="90.79" x2="650.93" y2="35.6" xlink:href="#linear-gradient"/>
    <linearGradient id="linear-gradient-10" x1="12.96" y1="87.89" x2="650.68" y2="32.7" xlink:href="#linear-gradient"/>
    <linearGradient id="linear-gradient-11" x1="14.07" y1="100.83" x2="651.8" y2="45.64" xlink:href="#linear-gradient"/>
    <linearGradient id="linear-gradient-12" x1="18.35" y1="150.28" x2="656.08" y2="95.09" xlink:href="#linear-gradient"/>
  </defs>
  <g id="_Слой_1-2" data-name="Слой 1">
    <g>
      <path class="cls-9" d="M48.12,73.32c-5.58,2.31-11.42,3.46-17.53,3.46-9.84,0-17.4-2.94-22.67-8.82C2.64,62.09,0,53.39,0,41.88c0-5.58,.73-10.62,2.18-15.13,1.46-4.51,3.53-8.34,6.23-11.48,2.7-3.14,5.97-5.57,9.81-7.27,3.84-1.7,8.13-2.56,12.89-2.56,3.23,0,6.23,.28,9.01,.83,2.77,.55,5.43,1.39,7.99,2.53v9.32c-2.52-1.39-5.13-2.44-7.83-3.17-2.7-.73-5.65-1.09-8.85-1.09s-6.23,.61-8.87,1.84c-2.65,1.23-4.89,3-6.74,5.33-1.85,2.33-3.27,5.17-4.26,8.53-1,3.36-1.49,7.19-1.49,11.48,0,9.02,1.83,15.83,5.49,20.41,3.66,4.58,9.02,6.87,16.09,6.87,2.98,0,5.84-.35,8.58-1.04,2.73-.69,5.36-1.66,7.89-2.9v8.95Z"/>
      <path class="cls-1" d="M107.29,46.36c0,1.31-.02,2.42-.05,3.3-.04,.89-.09,1.72-.16,2.5h-37.57c0,5.47,1.53,9.67,4.58,12.6,3.05,2.93,7.46,4.4,13.21,4.4,1.56,0,3.13-.06,4.69-.19,1.56-.12,3.07-.29,4.53-.51,1.46-.21,2.85-.45,4.18-.72,1.33-.27,2.57-.56,3.7-.88v7.62c-2.52,.71-5.37,1.29-8.55,1.73-3.18,.44-6.47,.67-9.88,.67-4.58,0-8.53-.62-11.83-1.87-3.3-1.24-6.01-3.05-8.13-5.41-2.11-2.36-3.68-5.26-4.69-8.69-1.01-3.43-1.52-7.31-1.52-11.64,0-3.76,.54-7.33,1.63-10.68,1.08-3.36,2.66-6.31,4.74-8.85,2.08-2.54,4.63-4.56,7.65-6.05,3.02-1.49,6.45-2.24,10.28-2.24s7.03,.59,9.91,1.76c2.88,1.17,5.3,2.83,7.27,4.98,1.97,2.15,3.46,4.76,4.48,7.83,1.01,3.07,1.52,6.51,1.52,10.31Zm-9.64-1.33c.11-2.38-.12-4.56-.69-6.53-.57-1.97-1.45-3.67-2.64-5.09-1.19-1.42-2.67-2.53-4.45-3.33-1.78-.8-3.84-1.2-6.18-1.2-2.02,0-3.87,.39-5.54,1.17-1.67,.78-3.11,1.88-4.32,3.3-1.21,1.42-2.18,3.13-2.93,5.12-.75,1.99-1.21,4.17-1.39,6.55h28.14Z"/>
      <path class="cls-8" d="M124.02,22.43h8.47l.27,9.86c3.16-3.8,6.28-6.55,9.35-8.26,3.07-1.7,6.17-2.56,9.3-2.56,5.54,0,9.74,1.79,12.6,5.38,2.86,3.59,4.18,8.92,3.97,15.99h-9.38c.11-4.69-.58-8.09-2.05-10.21-1.47-2.11-3.63-3.17-6.47-3.17-1.24,0-2.5,.22-3.76,.67-1.26,.44-2.56,1.15-3.89,2.13-1.33,.98-2.74,2.23-4.24,3.76-1.49,1.53-3.09,3.38-4.8,5.54v34.37h-9.38V22.43Z"/>
      <path class="cls-10" d="M227.33,75.19c-2.1,.53-4.26,.92-6.5,1.15-2.24,.23-4.51,.35-6.82,.35-6.71,0-11.72-1.52-15.03-4.56-3.3-3.04-4.96-7.7-4.96-13.99V30.21h-14.97v-7.78h14.97V7.73l9.27-2.4V22.43h24.03v7.78h-24.03v27.18c0,3.84,1.02,6.71,3.06,8.61,2.04,1.9,5.05,2.85,9.03,2.85,1.71,0,3.57-.13,5.6-.4,2.02-.27,4.14-.68,6.34-1.25v7.99Z"/>
      <path class="cls-5" d="M260.63,30.11h-15.83v-7.67h25.2v45.77h15.93v7.73h-42.9v-7.73h17.58V30.11Zm3.25-30.11c1.03,0,1.99,.19,2.88,.56,.89,.37,1.66,.9,2.32,1.57,.66,.67,1.17,1.45,1.55,2.32,.37,.87,.56,1.82,.56,2.85s-.19,1.94-.56,2.82c-.37,.89-.89,1.67-1.55,2.34-.66,.68-1.43,1.2-2.32,1.57-.89,.37-1.85,.56-2.88,.56s-1.99-.19-2.88-.56c-.89-.37-1.66-.9-2.32-1.57-.66-.67-1.17-1.46-1.54-2.34-.37-.89-.56-1.83-.56-2.82s.19-1.98,.56-2.85c.37-.87,.89-1.64,1.54-2.32,.66-.67,1.43-1.2,2.32-1.57,.89-.37,1.85-.56,2.88-.56Z"/>
      <path class="cls-2" d="M342.19,9.27c-4.87-1.03-9.06-1.55-12.58-1.55-8.35,0-12.52,4.37-12.52,13.11v9.38h23.45v7.73h-23.45v37.99h-9.43V37.94h-17.21v-7.73h17.21v-8.85c0-14.24,7.42-21.37,22.27-21.37,3.69,0,7.78,.43,12.26,1.28v7.99Z"/>
      <path class="cls-6" d="M371.61,30.11h-15.83v-7.67h25.2v45.77h15.93v7.73h-42.9v-7.73h17.58V30.11Zm3.25-30.11c1.03,0,1.99,.19,2.88,.56,.89,.37,1.66,.9,2.32,1.57,.66,.67,1.17,1.45,1.55,2.32,.37,.87,.56,1.82,.56,2.85s-.19,1.94-.56,2.82c-.37,.89-.89,1.67-1.55,2.34-.66,.68-1.43,1.2-2.32,1.57-.89,.37-1.85,.56-2.88,.56s-1.99-.19-2.88-.56c-.89-.37-1.66-.9-2.32-1.57-.66-.67-1.17-1.46-1.54-2.34-.37-.89-.56-1.83-.56-2.82s.19-1.98,.56-2.85c.37-.87,.89-1.64,1.54-2.32,.66-.67,1.43-1.2,2.32-1.57,.89-.37,1.85-.56,2.88-.56Z"/>
      <path class="cls-11" d="M451.58,73.96c-2.42,.92-4.89,1.61-7.43,2.05-2.54,.44-5.16,.67-7.86,.67-8.45,0-14.96-2.29-19.53-6.87-4.57-4.58-6.85-11.28-6.85-20.09,0-4.23,.66-8.06,1.97-11.51,1.31-3.44,3.16-6.39,5.54-8.84,2.38-2.45,5.22-4.34,8.53-5.68,3.3-1.33,6.94-2,10.92-2,2.77,0,5.36,.2,7.78,.59,2.41,.39,4.72,1.03,6.93,1.92v8.85c-2.31-1.21-4.66-2.09-7.06-2.64-2.4-.55-4.88-.83-7.43-.83-2.38,0-4.63,.45-6.74,1.36-2.11,.91-3.97,2.21-5.57,3.92-1.6,1.71-2.86,3.78-3.78,6.23-.92,2.45-1.39,5.22-1.39,8.31,0,6.47,1.57,11.31,4.72,14.52,3.14,3.22,7.5,4.82,13.08,4.82,2.52,0,4.96-.28,7.33-.85,2.36-.57,4.64-1.42,6.85-2.56v8.63Z"/>
      <path class="cls-7" d="M502.69,75.93l-.21-7.19c-2.91,2.88-5.87,4.96-8.87,6.23-3,1.28-6.16,1.92-9.46,1.92-3.06,0-5.67-.39-7.83-1.17-2.17-.78-3.95-1.86-5.35-3.22-1.4-1.37-2.43-2.97-3.09-4.82-.66-1.85-.99-3.85-.99-6.02,0-5.36,2-9.56,6-12.6,4-3.04,9.9-4.56,17.72-4.56h11.08v-4.69c0-3.16-1.01-5.69-3.04-7.59-2.02-1.9-5.12-2.85-9.27-2.85-3.02,0-6,.34-8.92,1.01-2.93,.68-5.96,1.63-9.09,2.88v-8.37c1.17-.43,2.48-.84,3.92-1.25,1.44-.41,2.96-.77,4.56-1.09,1.6-.32,3.27-.58,5.01-.77,1.74-.19,3.5-.29,5.28-.29,3.23,0,6.15,.35,8.74,1.07,2.59,.71,4.79,1.79,6.58,3.25,1.79,1.46,3.17,3.29,4.13,5.49,.96,2.2,1.44,4.79,1.44,7.78v36.87h-8.31Zm-1.01-24.35h-11.78c-2.31,0-4.3,.23-5.97,.69-1.67,.46-3.04,1.12-4.1,1.97-1.07,.85-1.86,1.87-2.37,3.06-.51,1.19-.77,2.53-.77,4.02,0,1.03,.16,2.02,.48,2.96,.32,.94,.83,1.78,1.54,2.5,.71,.73,1.63,1.31,2.77,1.73,1.14,.43,2.52,.64,4.16,.64,2.13,0,4.57-.65,7.33-1.94,2.75-1.3,5.66-3.35,8.71-6.15v-9.49Z"/>
      <path class="cls-4" d="M571.96,75.19c-2.1,.53-4.26,.92-6.5,1.15-2.24,.23-4.51,.35-6.82,.35-6.71,0-11.72-1.52-15.03-4.56-3.3-3.04-4.96-7.7-4.96-13.99V30.21h-14.97v-7.78h14.97V7.73l9.27-2.4V22.43h24.03v7.78h-24.03v27.18c0,3.84,1.02,6.71,3.06,8.61,2.04,1.9,5.05,2.85,9.03,2.85,1.71,0,3.57-.13,5.6-.4,2.03-.27,4.14-.68,6.34-1.25v7.99Z"/>
      <path class="cls-3" d="M632.11,46.36c0,1.31-.02,2.42-.05,3.3-.04,.89-.09,1.72-.16,2.5h-37.57c0,5.47,1.53,9.67,4.58,12.6,3.05,2.93,7.46,4.4,13.21,4.4,1.56,0,3.12-.06,4.69-.19,1.56-.12,3.07-.29,4.53-.51,1.46-.21,2.85-.45,4.18-.72,1.33-.27,2.57-.56,3.7-.88v7.62c-2.52,.71-5.37,1.29-8.55,1.73-3.18,.44-6.47,.67-9.88,.67-4.58,0-8.53-.62-11.83-1.87-3.3-1.24-6.01-3.05-8.13-5.41-2.12-2.36-3.68-5.26-4.69-8.69-1.01-3.43-1.52-7.31-1.52-11.64,0-3.76,.54-7.33,1.63-10.68,1.08-3.36,2.66-6.31,4.74-8.85,2.08-2.54,4.63-4.56,7.65-6.05,3.02-1.49,6.45-2.24,10.28-2.24s7.03,.59,9.91,1.76c2.88,1.17,5.3,2.83,7.27,4.98,1.97,2.15,3.46,4.76,4.48,7.83,1.01,3.07,1.52,6.51,1.52,10.31Zm-9.64-1.33c.11-2.38-.12-4.56-.69-6.53-.57-1.97-1.45-3.67-2.64-5.09-1.19-1.42-2.67-2.53-4.45-3.33-1.78-.8-3.84-1.2-6.18-1.2-2.02,0-3.87,.39-5.54,1.17-1.67,.78-3.11,1.88-4.32,3.3-1.21,1.42-2.18,3.13-2.93,5.12-.75,1.99-1.21,4.17-1.39,6.55h28.14Z"/>
      <path class="cls-12" d="M699.39,97.78h-60v-7.67h60v7.67Z"/>
    </g>
  </g>
</svg>