<?xml version="1.0" standalone="no"?>
<!DOCTYPE svg PUBLIC "-//W3C//DTD SVG 20010904//EN"
 "http://www.w3.org/TR/2001/REC-SVG-20010904/DTD/svg10.dtd">
<svg version="1.0" xmlns="http://www.w3.org/2000/svg"
 width="1317.000000pt" height="1183.000000pt" viewBox="0 0 1317.000000 1183.000000"
 preserveAspectRatio="xMidYMid meet">
 
  <circle cx="50%" cy="50%" r="50%" fill="#f9f9f9" />
<g transform="translate(0.000000,1183.000000) scale(0.100000,-0.100000)"
fill="#000000" stroke="none">
<path d="M4580 6958 c-799 -2262 -750 -2129 -825 -2231 -76 -102 -154 -135
-342 -144 -121 -6 -123 -6 -123 -30 l0 -23 633 2 632 3 3 21 c3 20 -1 21 -185
27 -284 9 -388 43 -438 143 -25 50 -25 146 0 234 18 64 291 836 319 905 l15
35 697 -2 698 -3 162 -450 c90 -247 170 -483 180 -524 19 -85 15 -206 -8 -239
-46 -66 -126 -90 -330 -99 -147 -6 -148 -6 -148 -30 l0 -23 760 0 760 0 0 24
c0 21 -5 24 -62 30 -105 12 -139 26 -196 83 -37 37 -65 79 -92 135 -28 61
-884 2325 -1290 3411 l-21 57 -167 0 -167 0 -465 -1312z m425 806 c54 -196
161 -506 409 -1191 124 -343 226 -625 226 -628 0 -3 -306 -5 -680 -5 -374 0
-680 2 -680 5 0 2 70 204 156 447 243 690 479 1366 504 1441 12 38 24 66 26
64 2 -2 20 -62 39 -133z"/>
<path d="M6140 6946 c0 -23 3 -24 88 -28 143 -7 233 -64 297 -188 13 -25 276
-766 585 -1645 309 -880 580 -1654 604 -1720 l42 -120 153 0 153 0 552 1705
c354 1094 564 1728 586 1768 47 89 100 145 162 173 46 20 72 24 196 27 l142 4
0 24 0 24 -636 0 -635 0 3 -22 c3 -23 4 -23 243 -29 243 -6 282 -12 343 -49
63 -39 88 -150 61 -270 -5 -25 -187 -601 -404 -1280 -217 -679 -420 -1321
-452 -1427 -31 -105 -61 -189 -64 -187 -4 2 -11 19 -14 37 -16 73 -108 385
-165 562 -35 105 -224 659 -420 1231 -197 573 -363 1068 -369 1100 -27 145 -1
214 99 261 26 12 75 17 198 21 l162 4 0 24 0 24 -755 0 -755 0 0 -24z"/>
</g>
</svg>
